# xmcd
#
# Track frame offsets:
#       150
#       15398
#       29583
#       44188
#       58671
#       78926
#       95052
#       107603
#       124563
#       143131
#       158134
#       173091
#       186873
#       201583
#       221528
#       241244
#
# Disc length: 3385 seconds
#
# Revision: 2
# Processed by: cddbd v1.5.2PL0 Copyright (c) Steve Scherf et al.
# Submitted via: FreeDbEdit v0.1
#
DISCID=e00d3710
DTITLE=Wolverines - Feel the Need to Ride
DYEAR=2000
DGENRE=Country
TTITLE0=Feel the Need to Ride
TTITLE1=Pamela Ann
TTITLE2=Hog Heaven
TTITLE3=Movin' on Down the Highway
TTITLE4=I Don't Wanna Cry Anymore
TTITLE5=Free to Be Me
TTITLE6=Murrumbidgee
TTITLE7=Sailin' Away in My Mind
TTITLE8=H.O.G.
TTITLE9=Sitting on the Top of the World
TTITLE10=Kickin' Down Fences
TTITLE11=There's a Little Bit of Outback
TTITLE12=I'm Trouble With a Capital 'T'
TTITLE13=Nobody Rides My Harley but Me
TTITLE14=Sweet Home Alabama
TTITLE15=Back to Back
EXTD=YEAR: 2000
EXTT0=
EXTT1=
EXTT2=
EXTT3=
EXTT4=
EXTT5=
EXTT6=
EXTT7=
EXTT8=
EXTT9=
EXTT10=
EXTT11=
EXTT12=
EXTT13=
EXTT14=
EXTT15=
PLAYORDER=
